<?xml version="1.0" encoding="UTF-8" standalone="no"?><svg xmlns="http://www.w3.org/2000/svg" xmlns:xlink="http://www.w3.org/1999/xlink" contentScriptType="application/ecmascript" contentStyleType="text/css" height="607px" preserveAspectRatio="none" style="width:618px;height:607px;" version="1.1" viewBox="0 0 618 607" width="618px" zoomAndPan="magnify"><defs><filter height="300%" id="f2ma1s7vep2t8" width="300%" x="-1" y="-1"><feGaussianBlur result="blurOut" stdDeviation="2.0"/><feColorMatrix in="blurOut" result="blurOut2" type="matrix" values="0 0 0 0 0 0 0 0 0 0 0 0 0 0 0 0 0 0 .4 0"/><feOffset dx="4.0" dy="4.0" in="blurOut2" result="blurOut3"/><feBlend in="SourceGraphic" in2="blurOut3" mode="normal"/></filter></defs><g><!--cluster main--><rect fill="#FFFFFF" filter="url(#f2ma1s7vep2t8)" height="572" style="stroke: #000000; stroke-width: 1.5;" width="477" x="130" y="24"/><text fill="#000000" font-family="sans-serif" font-size="14" font-weight="bold" lengthAdjust="spacingAndGlyphs" textLength="37" x="350" y="38.9951">main</text><ellipse cx="368.6793" cy="291.1359" fill="#FEFECE" filter="url(#f2ma1s7vep2t8)" rx="203.6793" ry="43.1359" style="stroke: #A80036; stroke-width: 1.5;"/><text fill="#000000" font-family="sans-serif" font-size="14" lengthAdjust="spacingAndGlyphs" textLength="393" x="172.1793" y="295.7843">Implement heuristics that can quickly generate a solution</text><ellipse cx="368.6144" cy="79.9229" fill="#FEFECE" filter="url(#f2ma1s7vep2t8)" rx="90.1144" ry="20.4229" style="stroke: #A80036; stroke-width: 1.5;"/><text fill="#000000" font-family="sans-serif" font-size="14" lengthAdjust="spacingAndGlyphs" textLength="154" x="291.6144" y="84.5713">Analyze TSP Heurestic</text><ellipse cx="368.6907" cy="418.2381" fill="#FEFECE" filter="url(#f2ma1s7vep2t8)" rx="151.6907" ry="32.7381" style="stroke: #A80036; stroke-width: 1.5;"/><text fill="#000000" font-family="sans-serif" font-size="14" lengthAdjust="spacingAndGlyphs" textLength="286" x="225.6907" y="422.8866">Analyze and implement distance heuristic</text><ellipse cx="368.6446" cy="166.1289" fill="#FEFECE" filter="url(#f2ma1s7vep2t8)" rx="141.1446" ry="30.6289" style="stroke: #A80036; stroke-width: 1.5;"/><text fill="#000000" font-family="sans-serif" font-size="14" lengthAdjust="spacingAndGlyphs" textLength="264" x="236.6446" y="170.7774">Analyze and implement mass heuristic</text><ellipse cx="368.3175" cy="532.8635" fill="#FEFECE" filter="url(#f2ma1s7vep2t8)" rx="222.3175" ry="46.8635" style="stroke: #A80036; stroke-width: 1.5;"/><text fill="#000000" font-family="sans-serif" font-size="14" lengthAdjust="spacingAndGlyphs" textLength="431" x="152.8175" y="537.5119">Analyze and implement combines distance with mass heuristic</text><!--entity user--><ellipse cx="21.5" cy="259.5" fill="#FEFECE" filter="url(#f2ma1s7vep2t8)" rx="8" ry="8" style="stroke: #A80036; stroke-width: 2.0;"/><path d="M21.5,267.5 L21.5,294.5 M8.5,275.5 L34.5,275.5 M21.5,294.5 L8.5,309.5 M21.5,294.5 L34.5,309.5 " fill="none" filter="url(#f2ma1s7vep2t8)" style="stroke: #A80036; stroke-width: 2.0;"/><text fill="#000000" font-family="sans-serif" font-size="14" lengthAdjust="spacingAndGlyphs" textLength="31" x="6" y="329.4951">user</text><!--link user to Implement heuristics that can quickly generate a solution --><path d="M37.32,291 C61.18,291 110.91,291 164.69,291 " fill="none" id="user-Implement heuristics that can quickly generate a solution " style="stroke: #A80036; stroke-width: 1.0;"/><!--link Implement heuristics that can quickly generate a solution  to Analyze TSP Heurestic--><path d="M205.9,264.97 C174.87,253.61 144.96,237.33 122,214 C106.93,198.69 111.03,187.9 113,166.5 C115.01,144.67 106.26,133.26 122,118 C164.08,77.19 230.59,68.91 283.93,70.18 " fill="none" id="Implement heuristics that can quickly generate a solution -Analyze TSP Heurestic" style="stroke: #A80036; stroke-width: 1.0;"/><polygon fill="#A80036" points="289.04,70.33,280.1701,66.0493,284.0425,70.1729,279.9188,74.0453,289.04,70.33" style="stroke: #A80036; stroke-width: 1.0;"/><text fill="#000000" font-family="sans-serif" font-size="13" lengthAdjust="spacingAndGlyphs" textLength="45" x="68" y="179.5669">include</text><!--link Analyze and implement distance heuristic to Implement heuristics that can quickly generate a solution --><path d="M368.5,380.07 C368.5,365.62 368.5,349.04 368.5,334.13 " fill="none" id="Analyze and implement distance heuristic-Implement heuristics that can quickly generate a solution " style="stroke: #A80036; stroke-width: 1.0;"/><polygon fill="#A80036" points="368.5,385.29,372.5,376.29,368.5,380.29,364.5,376.29,368.5,385.29" style="stroke: #A80036; stroke-width: 1.0;"/><text fill="#000000" font-family="sans-serif" font-size="13" lengthAdjust="spacingAndGlyphs" textLength="45" x="334.5" y="364.3169">include</text><!--link Implement heuristics that can quickly generate a solution  to Analyze and implement mass heuristic--><path d="M368.5,247.98 C368.5,233.01 368.5,216.39 368.5,202.04 " fill="none" id="Implement heuristics that can quickly generate a solution -Analyze and implement mass heuristic" style="stroke: #A80036; stroke-width: 1.0;"/><polygon fill="#A80036" points="368.5,196.87,364.5,205.87,368.5,201.87,372.5,205.87,368.5,196.87" style="stroke: #A80036; stroke-width: 1.0;"/><text fill="#000000" font-family="sans-serif" font-size="13" lengthAdjust="spacingAndGlyphs" textLength="45" x="334.5" y="226.8169">include</text><!--link Analyze and implement combines distance with mass heuristic to Implement heuristics that can quickly generate a solution --><path d="M175.41,505.88 C155.39,496.5 136.95,484.16 122,468 C106.82,451.58 115.01,440.77 113,418.5 C110.95,395.79 106.21,384.44 122,368 C144.59,344.48 174.25,328.1 205.14,316.72 " fill="none" id="Analyze and implement combines distance with mass heuristic-Implement heuristics that can quickly generate a solution " style="stroke: #A80036; stroke-width: 1.0;"/><polygon fill="#A80036" points="179.98,507.96,173.4506,500.5866,175.4306,505.8856,170.1316,507.8656,179.98,507.96" style="stroke: #A80036; stroke-width: 1.0;"/><text fill="#000000" font-family="sans-serif" font-size="13" lengthAdjust="spacingAndGlyphs" textLength="45" x="68" y="414.5669">include</text><!--
@startuml UC4  
left to right direction  
skinparam packageStyle rectangle  
actor user  
rectangle main {
  user - - (Implement heuristics that can quickly generate a solution )  
  (Implement heuristics that can quickly generate a solution ) -right-> (Analyze TSP Heurestic) : include  
(Implement heuristics that can quickly generate a solution ) -left-> (Analyze and implement distance heuristic) : include  
(Implement heuristics that can quickly generate a solution ) -right-> (Analyze and implement mass heuristic) : include  
(Implement heuristics that can quickly generate a solution ) -left-> (Analyze and implement combines distance with mass heuristic) : include  
}  
@enduml

PlantUML version 1.2018.13(Mon Nov 26 18:11:51 CET 2018)
(GPL source distribution)
Java Runtime: OpenJDK Runtime Environment
JVM: OpenJDK 64-Bit Server VM
Java Version: 11.0.17+8-post-Ubuntu-1ubuntu220.04
Operating System: Linux
OS Version: 5.15.0-52-generic
Default Encoding: UTF-8
Language: pl
Country: PL
--></g></svg>